<svg width="120" height="42" viewBox="0 0 120 42" fill="none" xmlns="http://www.w3.org/2000/svg">
<g clip-path="url(#clip0_2_46)">
<path d="M34.8416 20.2927C33.7648 19.2225 32.3514 18.5569 30.8404 18.4086C29.3294 18.2604 27.8136 18.6385 26.5493 19.479C25.4706 20.1986 24.6294 21.2217 24.1316 22.419C23.9785 22.7912 23.8641 23.1783 23.7904 23.574C21.1067 23.2795 18.6038 22.0786 16.6948 20.1696C14.7857 18.2606 13.5849 15.7576 13.2904 13.074C13.6861 13.0002 14.0731 12.8859 14.4454 12.7327C15.643 12.2347 16.6662 11.3928 17.3857 10.3136C18.1052 9.23434 18.4887 7.96608 18.4879 6.66899C18.5072 5.76872 18.3373 4.87442 17.9891 4.04399C17.6619 3.24847 17.1802 2.52569 16.5719 1.91743C15.9637 1.30918 15.2409 0.827499 14.4454 0.500236C13.6149 0.152049 12.7206 -0.0178681 11.8204 0.00148574C10.5233 0.000620817 9.25503 0.384157 8.17578 1.10365C7.09654 1.82315 6.25471 2.84634 5.75663 4.04399C5.26312 5.2457 5.13437 6.56612 5.38645 7.84052C5.63853 9.11493 6.26028 10.2869 7.17413 11.2102C8.09288 12.1106 9.24788 12.7301 10.5079 12.9952V26.3827C9.67169 26.5459 8.87707 26.8763 8.17163 27.354C7.367 27.8943 6.69205 28.6062 6.19528 29.4384C5.69852 30.2707 5.39226 31.2026 5.29852 32.1673C5.20478 33.132 5.32589 34.1055 5.65314 35.0178C5.98039 35.9301 6.50566 36.7586 7.19121 37.4437C7.87675 38.1289 8.70555 38.6537 9.61805 38.9804C10.5305 39.3071 11.5041 39.4277 12.4687 39.3334C13.4333 39.2391 14.3651 38.9323 15.1971 38.435C16.029 37.9378 16.7405 37.2624 17.2804 36.4575C17.9993 35.3793 18.3829 34.1125 18.3829 32.8166C18.4022 31.9163 18.2323 31.022 17.8841 30.1916C17.4761 29.1984 16.8288 28.3215 15.9999 27.6391C15.1709 26.9567 14.186 26.4899 13.1329 26.2804V19.9804C14.4891 21.8971 16.2908 23.4556 18.3829 24.5216C20.0924 25.3969 21.9557 25.9318 23.8691 26.0966C24.1925 27.6893 25.0954 29.1054 26.4029 30.0706C27.7104 31.0358 29.3296 31.4815 30.9469 31.3214C32.5642 31.1613 34.0645 30.4068 35.1574 29.204C36.2503 28.0011 36.858 26.4355 36.8629 24.8104C36.8011 23.1 36.0762 21.4807 34.8416 20.2954V20.2927ZM13.3166 29.1652C14.0411 29.4724 14.6606 29.9842 15.1016 30.6352C15.6062 31.3926 15.8329 32.3014 15.743 33.207C15.6532 34.1126 15.2525 34.9591 14.609 35.6026C13.9655 36.2461 13.119 36.6468 12.2134 36.7367C11.3077 36.8265 10.399 36.5998 9.64163 36.0952C8.9893 35.6549 8.47868 35.0349 8.17163 34.3102C7.88028 33.595 7.80721 32.8095 7.96163 32.0527C8.10985 31.2863 8.48404 30.5817 9.03606 30.0297C9.58808 29.4777 10.2927 29.1035 11.0591 28.9552C11.8159 28.8008 12.6014 28.8739 13.3166 29.1652V29.1652ZM11.8204 10.5015C11.0385 10.5028 10.274 10.2713 9.6242 9.83656C8.97439 9.4018 8.46872 8.78343 8.17163 8.06024C7.88028 7.34497 7.80721 6.55947 7.96163 5.80274C8.10985 5.03627 8.48404 4.33169 9.03606 3.77967C9.58808 3.22765 10.2927 2.85346 11.0591 2.70524C11.8159 2.55081 12.6014 2.62389 13.3166 2.91524C14.1644 3.25909 14.866 3.88743 15.3009 4.69231C15.7357 5.49719 15.8768 6.42838 15.6997 7.32594C15.5227 8.2235 15.0387 9.03141 14.3308 9.61089C13.6228 10.1904 12.7352 10.5053 11.8204 10.5015ZM32.9779 27.7215C32.5195 28.1812 31.9546 28.5204 31.3334 28.709C30.7122 28.8975 30.054 28.9296 29.4175 28.8023C28.7809 28.6749 28.1857 28.3922 27.6848 27.9792C27.1839 27.5663 26.7929 27.0359 26.5466 26.4352C26.2553 25.72 26.1822 24.9345 26.3366 24.1777C26.4848 23.4113 26.859 22.7067 27.4111 22.1547C27.9631 21.6027 28.6677 21.2285 29.4341 21.0802C30.1909 20.9258 30.9764 20.9989 31.6916 21.2902C32.2927 21.536 32.8236 21.9268 33.237 22.4276C33.6504 22.9285 33.9334 23.5239 34.0607 24.1607C34.1881 24.7975 34.1559 25.4559 33.9669 26.0772C33.778 26.6985 33.4382 27.2634 32.9779 27.7215V27.7215Z" fill="currentColor"/>
</g>
<path d="M50.048 28.056H57.568V31H46.4V8.76H50.048V28.056ZM76.7788 21.752C76.7788 22.4133 76.7361 23.0107 76.6508 23.544H63.1788C63.2854 24.952 63.8081 26.0827 64.7468 26.936C65.6854 27.7893 66.8374 28.216 68.2028 28.216C70.1654 28.216 71.5521 27.3947 72.3628 25.752H76.2987C75.7654 27.3733 74.7948 28.7067 73.3868 29.752C72.0001 30.776 70.2721 31.288 68.2028 31.288C66.5174 31.288 65.0028 30.9147 63.6588 30.168C62.3361 29.4 61.2908 28.3333 60.5228 26.968C59.7761 25.5813 59.4028 23.9813 59.4028 22.168C59.4028 20.3547 59.7654 18.7653 60.4908 17.4C61.2374 16.0133 62.2721 14.9467 63.5948 14.2C64.9388 13.4533 66.4748 13.08 68.2028 13.08C69.8668 13.08 71.3494 13.4427 72.6508 14.168C73.9521 14.8933 74.9654 15.9173 75.6908 17.24C76.4161 18.5413 76.7788 20.0453 76.7788 21.752ZM72.9708 20.6C72.9494 19.256 72.4694 18.1787 71.5308 17.368C70.5921 16.5573 69.4294 16.152 68.0428 16.152C66.7841 16.152 65.7068 16.5573 64.8108 17.368C63.9148 18.1573 63.3814 19.2347 63.2108 20.6H72.9708ZM87.4728 13.08C88.8381 13.08 90.0434 13.3573 91.0888 13.912C92.1554 14.4453 92.9874 15.1173 93.5848 15.928V13.368H97.2648V31.288C97.2648 32.9093 96.9234 34.3493 96.2408 35.608C95.5581 36.888 94.5661 37.8907 93.2648 38.616C91.9848 39.3413 90.4488 39.704 88.6568 39.704C86.2674 39.704 84.2834 39.1387 82.7048 38.008C81.1261 36.8987 80.2301 35.384 80.0168 33.464H83.6328C83.9101 34.3813 84.4968 35.1173 85.3928 35.672C86.3101 36.248 87.3981 36.536 88.6568 36.536C90.1288 36.536 91.3128 36.088 92.2088 35.192C93.1261 34.296 93.5848 32.9947 93.5848 31.288V28.344C92.9661 29.176 92.1234 29.88 91.0568 30.456C90.0114 31.0107 88.8168 31.288 87.4728 31.288C85.9368 31.288 84.5288 30.904 83.2488 30.136C81.9901 29.3467 80.9874 28.2587 80.2408 26.872C79.5154 25.464 79.1528 23.8747 79.1528 22.104C79.1528 20.3333 79.5154 18.7653 80.2408 17.4C80.9874 16.0347 81.9901 14.9787 83.2488 14.232C84.5288 13.464 85.9368 13.08 87.4728 13.08ZM93.5848 22.168C93.5848 20.952 93.3288 19.896 92.8168 19C92.3261 18.104 91.6754 17.4213 90.8648 16.952C90.0541 16.4827 89.1794 16.248 88.2408 16.248C87.3021 16.248 86.4274 16.4827 85.6168 16.952C84.8061 17.4 84.1448 18.072 83.6328 18.968C83.1421 19.8427 82.8968 20.888 82.8968 22.104C82.8968 23.32 83.1421 24.3867 83.6328 25.304C84.1448 26.2213 84.8061 26.9253 85.6168 27.416C86.4488 27.8853 87.3234 28.12 88.2408 28.12C89.1794 28.12 90.0541 27.8853 90.8648 27.416C91.6754 26.9467 92.3261 26.264 92.8168 25.368C93.3288 24.4507 93.5848 23.384 93.5848 22.168ZM103.912 11.032C103.251 11.032 102.696 10.808 102.248 10.36C101.8 9.912 101.576 9.35733 101.576 8.696C101.576 8.03467 101.8 7.48 102.248 7.032C102.696 6.584 103.251 6.36 103.912 6.36C104.552 6.36 105.096 6.584 105.544 7.032C105.992 7.48 106.216 8.03467 106.216 8.696C106.216 9.35733 105.992 9.912 105.544 10.36C105.096 10.808 104.552 11.032 103.912 11.032ZM105.704 13.368V31H102.056V13.368H105.704ZM114.75 16.344V26.104C114.75 26.7653 114.899 27.2453 115.198 27.544C115.518 27.8213 116.051 27.96 116.798 27.96H119.038V31H116.158C114.515 31 113.256 30.616 112.382 29.848C111.507 29.08 111.07 27.832 111.07 26.104V16.344H108.99V13.368H111.07V8.984H114.75V13.368H119.038V16.344H114.75Z" fill="currentColor"/>
<defs>
<clipPath id="clip0_2_46">
<rect width="42" height="42" fill="currentColor"/>
</clipPath>
</defs>
</svg>
